<svg width="292" height="292" viewBox="0 0 292 292" fill="none" xmlns="http://www.w3.org/2000/svg">
<path d="M21.7406 218.502L146 6.99126L270.259 218.502H21.7406Z" stroke="white" stroke-width="2"/>
<path d="M25.8516 235.845C26.4622 235.845 27.0182 235.722 27.5195 235.476C28.0208 235.221 28.4492 234.865 28.8047 234.409C29.1602 233.954 29.4336 233.407 29.625 232.769C29.8255 232.131 29.9258 231.42 29.9258 230.636C29.9258 229.852 29.8301 229.141 29.6387 228.503C29.4473 227.865 29.1784 227.318 28.832 226.863C28.4857 226.407 28.071 226.056 27.5879 225.81C27.1048 225.555 26.5671 225.427 25.9746 225.427C25.4004 225.427 24.8809 225.555 24.416 225.81C23.9512 226.056 23.5501 226.407 23.2129 226.863C22.8848 227.318 22.6296 227.865 22.4473 228.503C22.265 229.141 22.1738 229.852 22.1738 230.636C22.1738 231.42 22.2604 232.131 22.4336 232.769C22.6159 233.407 22.8665 233.954 23.1855 234.409C23.5046 234.865 23.8919 235.221 24.3477 235.476C24.8034 235.722 25.3047 235.845 25.8516 235.845ZM20.6836 230.636C20.6836 229.843 20.8112 229.123 21.0664 228.476C21.3216 227.829 21.6771 227.277 22.1328 226.822C22.5977 226.357 23.1536 226.001 23.8008 225.755C24.457 225.5 25.1816 225.372 25.9746 225.372C26.7949 225.372 27.5378 225.5 28.2031 225.755C28.8685 226.001 29.4382 226.357 29.9121 226.822C30.3952 227.277 30.7643 227.829 31.0195 228.476C31.2839 229.123 31.416 229.843 31.416 230.636C31.416 231.429 31.2793 232.149 31.0059 232.796C30.7415 233.443 30.3633 233.999 29.8711 234.464C29.388 234.92 28.8047 235.275 28.1211 235.531C27.4375 235.777 26.6764 235.9 25.8379 235.9C25.0632 235.9 24.3568 235.777 23.7188 235.531C23.0898 235.275 22.5475 234.92 22.0918 234.464C21.6452 233.999 21.2988 233.443 21.0527 232.796C20.8066 232.149 20.6836 231.429 20.6836 230.636ZM38.5292 225.55V226.507V230.486H39.8964C40.3521 230.486 40.7623 230.431 41.1269 230.322C41.5006 230.203 41.8196 230.039 42.0839 229.829C42.3482 229.62 42.5533 229.369 42.6991 229.077C42.845 228.786 42.9179 228.462 42.9179 228.107C42.9179 227.724 42.8723 227.378 42.7812 227.068C42.6991 226.749 42.5396 226.48 42.3027 226.261C42.0748 226.033 41.7558 225.86 41.3456 225.741C40.9446 225.614 40.4296 225.55 39.8007 225.55H38.5292ZM40.621 230.486L40.6073 230.513C41.1998 230.522 41.7376 230.59 42.2206 230.718C42.7128 230.846 43.1321 231.023 43.4784 231.251C43.8248 231.479 44.0937 231.753 44.2851 232.072C44.4765 232.391 44.5722 232.746 44.5722 233.138C44.5722 233.667 44.4674 234.104 44.2577 234.45C44.0481 234.788 43.7473 235.057 43.3554 235.257C42.9726 235.458 42.5077 235.594 41.9609 235.667C41.4231 235.74 40.8261 235.777 40.1698 235.777H38.5292H37.5312H36.5195C36.4921 235.767 36.4602 235.763 36.4237 235.763C36.3873 235.754 36.3463 235.749 36.3007 235.749C36.2642 235.74 36.2187 235.731 36.164 235.722C36.0728 235.713 35.9862 235.699 35.9042 235.681C35.8586 235.681 35.8222 235.676 35.7948 235.667H36.3827C36.6379 235.667 36.843 235.617 36.998 235.517C37.1529 235.407 37.2304 235.161 37.2304 234.779V226.521C37.2304 226.138 37.1529 225.896 36.998 225.796C36.843 225.687 36.6379 225.632 36.3827 225.632H35.7948C35.8222 225.623 35.8586 225.618 35.9042 225.618C35.9316 225.609 35.968 225.605 36.0136 225.605C36.0592 225.596 36.1093 225.587 36.164 225.577C36.246 225.568 36.3326 225.555 36.4237 225.536C36.4602 225.536 36.4921 225.532 36.5195 225.523H37.5312H38.5292H39.8827C40.7577 225.523 41.4778 225.582 42.0429 225.7C42.608 225.819 43.0501 225.988 43.3691 226.206C43.6881 226.416 43.9068 226.671 44.0253 226.972C44.1529 227.273 44.2167 227.61 44.2167 227.984C44.2167 228.33 44.1301 228.649 43.957 228.941C43.7929 229.223 43.5514 229.474 43.2323 229.693C42.9224 229.911 42.5442 230.089 42.0976 230.226C41.6601 230.353 41.1679 230.44 40.621 230.486ZM39.8964 230.54H38.5155V234.792V235.079C38.5155 235.28 38.5976 235.444 38.7616 235.572C38.9348 235.69 39.1581 235.749 39.4316 235.749H40.1152C40.5709 235.749 40.981 235.713 41.3456 235.64C41.7193 235.567 42.0338 235.435 42.289 235.243C42.5533 235.052 42.7584 234.788 42.9042 234.45C43.0501 234.113 43.123 233.68 43.123 233.152C43.123 232.76 43.0546 232.404 42.9179 232.085C42.7903 231.757 42.608 231.479 42.371 231.251C42.134 231.023 41.8424 230.85 41.496 230.732C41.1588 230.604 40.7851 230.54 40.3749 230.54H39.8964ZM52.9159 225.605L53.0662 225.632L52.8202 225.55C52.8019 225.541 52.7746 225.536 52.7381 225.536H52.7518C52.4692 225.454 52.173 225.413 51.8631 225.413C51.3254 225.413 50.897 225.609 50.578 226.001C50.259 226.384 50.0995 226.899 50.0995 227.546C50.0995 227.956 50.3228 228.376 50.7694 228.804C51.2251 229.223 51.9041 229.606 52.8065 229.952C53.7271 230.299 54.4198 230.754 54.8846 231.32C55.3495 231.876 55.5819 232.468 55.5819 233.097C55.5819 233.516 55.5044 233.899 55.3495 234.245C55.2036 234.583 54.9894 234.874 54.7069 235.12C54.4334 235.366 54.1008 235.558 53.7088 235.695C53.326 235.822 52.8976 235.886 52.4237 235.886C51.9679 235.886 51.5304 235.818 51.1112 235.681C50.6919 235.535 50.3091 235.33 49.9627 235.066H49.9491C49.6847 234.865 49.4614 234.797 49.2791 234.861C49.0968 234.924 48.9966 235.047 48.9784 235.23C48.9692 235.303 48.9601 235.371 48.951 235.435C48.9419 235.499 48.9328 235.549 48.9237 235.585C48.9237 235.64 48.9191 235.685 48.91 235.722C48.91 235.685 48.9054 235.64 48.8963 235.585C48.8963 235.54 48.8918 235.49 48.8827 235.435C48.8827 235.371 48.8827 235.303 48.8827 235.23C48.8827 235.157 48.8827 235.088 48.8827 235.025C48.8827 234.961 48.8827 234.911 48.8827 234.874C48.8735 234.82 48.869 234.774 48.869 234.738V233.863V233.74V232.988C48.869 232.96 48.8735 232.933 48.8827 232.906C48.8827 232.833 48.8827 232.764 48.8827 232.7C48.8918 232.628 48.8963 232.555 48.8963 232.482C48.9054 232.454 48.91 232.427 48.91 232.4L48.9237 232.482L48.9784 232.7C49.0239 232.883 49.0968 233.088 49.1971 233.316C49.2974 233.544 49.4159 233.771 49.5526 233.999C49.6984 234.227 49.8579 234.446 50.0311 234.656C50.2043 234.865 50.3866 235.038 50.578 235.175C50.8605 235.385 51.1567 235.544 51.4666 235.654C51.7857 235.763 52.1047 235.818 52.4237 235.818C53.0708 235.818 53.5858 235.603 53.9686 235.175C54.3605 234.747 54.5565 234.182 54.5565 233.48C54.5565 233.106 54.3423 232.728 53.9139 232.345C53.4946 231.962 52.8657 231.611 52.0272 231.292C51.0519 230.919 50.3136 230.445 49.8123 229.87C49.3202 229.296 49.0741 228.685 49.0741 228.038C49.0741 227.637 49.1379 227.273 49.2655 226.945C49.4022 226.607 49.5936 226.325 49.8397 226.097C50.0858 225.86 50.3774 225.678 50.7147 225.55C51.061 225.422 51.4439 225.359 51.8631 225.359C52.3371 225.359 52.7791 225.422 53.1893 225.55C53.6086 225.678 53.9732 225.855 54.283 226.083C54.4471 226.184 54.5884 226.197 54.7069 226.124C54.8345 226.042 54.912 225.928 54.9393 225.782C54.9575 225.682 54.9758 225.587 54.994 225.495C54.994 225.45 54.9985 225.413 55.0077 225.386C55.0077 225.413 55.0077 225.45 55.0077 225.495C55.0077 225.532 55.0077 225.573 55.0077 225.618C55.0168 225.664 55.0213 225.719 55.0213 225.782C55.0304 225.883 55.035 225.974 55.035 226.056C55.035 226.101 55.035 226.138 55.035 226.165V226.945V226.958V227.71C55.035 227.738 55.035 227.765 55.035 227.792C55.035 227.865 55.0304 227.934 55.0213 227.997C55.0122 228.07 55.0077 228.143 55.0077 228.216C55.0077 228.243 55.0077 228.271 55.0077 228.298L54.994 228.216L54.9393 227.997C54.8846 227.788 54.7935 227.564 54.6659 227.327C54.5474 227.09 54.397 226.863 54.2147 226.644C54.0324 226.416 53.8319 226.211 53.6131 226.029C53.3944 225.837 53.162 225.696 52.9159 225.605ZM52.9432 225.591V225.577L52.8202 225.536H52.7791L52.9432 225.591ZM62.7634 227.259L65.197 231.073L67.5896 226.849C67.7263 226.594 67.8175 226.389 67.863 226.234C67.9177 226.07 67.9314 225.942 67.9041 225.851C67.8858 225.76 67.8357 225.7 67.7537 225.673C67.6716 225.637 67.5668 225.618 67.4392 225.618H66.9197C66.9379 225.609 66.9607 225.605 66.988 225.605C67.0427 225.587 67.0974 225.573 67.1521 225.564C67.2068 225.555 67.2569 225.541 67.3025 225.523C67.3298 225.523 67.3526 225.518 67.3709 225.509H68.2459H68.3552H68.4646H69.1209C69.1391 225.518 69.1573 225.523 69.1755 225.523C69.2302 225.541 69.2849 225.555 69.3396 225.564C69.3943 225.573 69.449 225.587 69.5037 225.605C69.5219 225.605 69.5401 225.609 69.5584 225.618H68.9841C68.9021 225.618 68.811 225.637 68.7107 225.673C68.6196 225.71 68.5193 225.782 68.4099 225.892C68.3005 225.992 68.1729 226.138 68.0271 226.329C67.8904 226.521 67.7309 226.771 67.5486 227.081L65.197 231.142V234.833C65.197 235.18 65.2745 235.403 65.4295 235.503C65.5844 235.603 65.7895 235.654 66.0447 235.654H66.6326C66.6052 235.663 66.5733 235.667 66.5369 235.667C66.5004 235.676 66.4594 235.685 66.4138 235.695C66.3774 235.695 66.3318 235.699 66.2771 235.708C66.186 235.717 66.0994 235.731 66.0173 235.749C65.9718 235.749 65.9353 235.754 65.908 235.763H64.5408H63.1736C63.1462 235.754 63.1143 235.749 63.0779 235.749C63.0414 235.74 63.0004 235.736 62.9548 235.736C62.9184 235.726 62.8728 235.717 62.8181 235.708C62.727 235.699 62.6404 235.685 62.5584 235.667C62.5219 235.667 62.49 235.663 62.4627 235.654H63.0369C63.3012 235.654 63.5108 235.603 63.6658 235.503C63.8207 235.403 63.8982 235.18 63.8982 234.833V231.361L61.2595 227.259H61.2459C61.0271 226.913 60.8448 226.635 60.699 226.425C60.5531 226.206 60.4392 226.038 60.3572 225.919C60.2752 225.801 60.2114 225.723 60.1658 225.687C60.1293 225.641 60.102 225.618 60.0837 225.618H59.3045C59.3227 225.609 59.3409 225.605 59.3591 225.605C59.4138 225.587 59.4685 225.573 59.5232 225.564C59.5779 225.555 59.6326 225.541 59.6873 225.523C59.7055 225.523 59.7237 225.518 59.742 225.509H60.1248H61.2048H61.656H62.6541C62.6723 225.518 62.6905 225.523 62.7087 225.523C62.7634 225.541 62.8181 225.555 62.8728 225.564C62.9275 225.573 62.9822 225.587 63.0369 225.605C63.0551 225.605 63.0733 225.609 63.0916 225.618H62.5857C62.449 225.618 62.3396 225.641 62.2576 225.687C62.1755 225.723 62.1345 225.801 62.1345 225.919C62.1345 226.038 62.1801 226.206 62.2712 226.425C62.3715 226.635 62.5356 226.913 62.7634 227.259ZM74.7438 226.507C74.7438 226.124 74.6664 225.883 74.5114 225.782C74.3565 225.673 74.1514 225.618 73.8962 225.618H73.3083C73.3356 225.609 73.3721 225.605 73.4177 225.605C73.445 225.596 73.4815 225.591 73.527 225.591C73.5726 225.582 73.6227 225.573 73.6774 225.564C73.7595 225.555 73.846 225.541 73.9372 225.523C73.9736 225.523 74.0055 225.518 74.0329 225.509H74.7438H75.0446H76.0427H77.943C78.9639 225.509 79.8571 225.632 80.6227 225.878C81.3975 226.124 82.0446 226.471 82.5641 226.917C83.0837 227.364 83.471 227.906 83.7262 228.544C83.9906 229.173 84.1227 229.87 84.1227 230.636C84.1227 231.484 83.9587 232.226 83.6305 232.865C83.3024 233.503 82.8421 234.04 82.2497 234.478C81.6572 234.906 80.9417 235.23 80.1032 235.448C79.2647 235.658 78.335 235.763 77.3141 235.763H76.0427H75.0446H74.7438H74.0329C74.0055 235.754 73.9736 235.749 73.9372 235.749C73.9007 235.74 73.8597 235.736 73.8141 235.736C73.7777 235.726 73.7321 235.717 73.6774 235.708C73.5863 235.699 73.4997 235.685 73.4177 235.667C73.3721 235.667 73.3356 235.663 73.3083 235.654H73.8962C74.1514 235.654 74.3565 235.603 74.5114 235.503C74.6664 235.394 74.7438 235.148 74.7438 234.765V226.507ZM76.0427 225.55V226.507V234.765V235.052C76.0427 235.152 76.0518 235.243 76.07 235.325C76.0973 235.407 76.152 235.48 76.2341 235.544C76.3252 235.599 76.4483 235.644 76.6032 235.681C76.7673 235.708 76.986 235.722 77.2595 235.722C78.0707 235.722 78.8089 235.617 79.4743 235.407C80.1488 235.189 80.723 234.87 81.197 234.45C81.6709 234.022 82.0355 233.489 82.2907 232.851C82.555 232.213 82.6872 231.475 82.6872 230.636C82.6872 229.87 82.5824 229.178 82.3727 228.558C82.1722 227.929 81.8669 227.396 81.4567 226.958C81.0466 226.512 80.5361 226.165 79.9255 225.919C79.3148 225.673 78.6039 225.55 77.7927 225.55H76.0427ZM91.1949 234.833C91.1949 235.18 91.2724 235.403 91.4273 235.503C91.5823 235.603 91.7874 235.654 92.0426 235.654H92.6305C92.6031 235.663 92.5712 235.667 92.5348 235.667C92.4983 235.676 92.4573 235.685 92.4117 235.695C92.3661 235.695 92.316 235.699 92.2613 235.708C92.1793 235.717 92.0927 235.731 92.0016 235.749C91.9651 235.749 91.9332 235.754 91.9059 235.763H90.5387H89.1715C89.1441 235.754 89.1122 235.749 89.0758 235.749C89.0393 235.74 88.9983 235.736 88.9527 235.736C88.9163 235.726 88.8707 235.717 88.816 235.708C88.7249 235.699 88.6383 235.685 88.5563 235.667C88.5198 235.667 88.4879 235.663 88.4605 235.654H89.0348C89.2991 235.654 89.5087 235.603 89.6637 235.503C89.8186 235.403 89.8961 235.18 89.8961 234.833V226.439C89.8961 226.092 89.8186 225.869 89.6637 225.769C89.5087 225.669 89.2991 225.618 89.0348 225.618H88.4605C88.4879 225.609 88.5198 225.605 88.5563 225.605C88.5927 225.596 88.6292 225.591 88.6656 225.591C88.7112 225.582 88.7613 225.573 88.816 225.564C88.9072 225.555 88.9938 225.541 89.0758 225.523C89.1122 225.523 89.1441 225.518 89.1715 225.509H90.5387H91.9059C91.9332 225.518 91.9651 225.523 92.0016 225.523C92.038 225.532 92.0745 225.541 92.1109 225.55C92.1565 225.55 92.2066 225.555 92.2613 225.564C92.3525 225.573 92.4436 225.587 92.5348 225.605C92.5712 225.605 92.6031 225.609 92.6305 225.618H92.0426C91.7874 225.618 91.5823 225.669 91.4273 225.769C91.2724 225.869 91.1949 226.092 91.1949 226.439V234.833ZM105.404 234.013H105.431C105.55 234.359 105.659 234.642 105.759 234.861C105.869 235.07 105.973 235.234 106.074 235.353C106.183 235.471 106.288 235.553 106.388 235.599C106.488 235.635 106.593 235.654 106.703 235.654H107.291C107.272 235.663 107.25 235.667 107.222 235.667C107.167 235.685 107.113 235.699 107.058 235.708C107.003 235.717 106.953 235.731 106.908 235.749C106.88 235.749 106.858 235.754 106.839 235.763H106.019H105.048H104.666H103.257C103.239 235.754 103.221 235.749 103.203 235.749C103.148 235.731 103.093 235.717 103.039 235.708C102.984 235.699 102.929 235.685 102.875 235.667C102.856 235.667 102.838 235.663 102.82 235.654H103.353C103.544 235.654 103.709 235.635 103.845 235.599C103.991 235.553 104.1 235.476 104.173 235.366C104.246 235.248 104.278 235.088 104.269 234.888C104.26 234.678 104.201 234.409 104.091 234.081L103.298 231.743H99.6069L99.0054 233.616C98.8687 234.045 98.7958 234.396 98.7866 234.669C98.7866 234.934 98.8322 235.143 98.9234 235.298C99.0236 235.444 99.1694 235.544 99.3609 235.599C99.5523 235.644 99.771 235.667 100.017 235.667H100.564C100.546 235.676 100.528 235.681 100.509 235.681C100.455 235.699 100.4 235.713 100.345 235.722C100.291 235.731 100.236 235.745 100.181 235.763C100.163 235.763 100.145 235.767 100.126 235.777H98.4995H98.3081H98.2534H96.8862C96.868 235.767 96.8452 235.763 96.8179 235.763C96.7632 235.745 96.7131 235.731 96.6675 235.722C96.6128 235.713 96.5581 235.699 96.5034 235.681C96.4761 235.681 96.4533 235.676 96.4351 235.667H97.023C97.2053 235.667 97.3784 235.644 97.5425 235.599C97.7157 235.544 97.8797 235.448 98.0347 235.312C98.1896 235.175 98.3355 234.984 98.4722 234.738C98.618 234.482 98.7593 234.154 98.896 233.753L101.371 226.056L101.33 225.919C101.485 225.901 101.644 225.828 101.808 225.7C101.981 225.573 102.132 225.418 102.259 225.236H102.396L102.628 225.919L105.39 234.013H105.404ZM99.6343 231.675H103.298L101.425 226.111L99.6343 231.675Z" fill="white"/>
<mask id="mask0" style="mask-type:alpha" maskUnits="userSpaceOnUse" x="0" y="0" width="292" height="292">
<path d="M88.3904 223.67H77.3904L0 147.003L146.5 0L292 146L146.5 292L91.5 237.814H100.5L146.5 280.46L280.5 146L146.5 11.5395L11.5 147.003L88.3904 223.67Z" fill="#C4C4C4"/>
</mask>
<g mask="url(#mask0)">
<rect x="1.41179" width="198.344" height="198.344" transform="matrix(0.705893 -0.708319 0.705893 0.708319 4.99383 147.502)" stroke="white" stroke-width="2"/>
</g>
</svg>
